<svg width="20" height="20" viewBox="0 0 20 20" fill="none" xmlns="http://www.w3.org/2000/svg">
<path fill-rule="evenodd" clip-rule="evenodd" d="M9.4283 1.54348C9.07871 1.60195 8.62102 1.76751 8.27789 1.95961C7.83734 2.20622 7.23483 2.80074 6.99691 3.22368C6.21033 4.62164 6.4344 6.30665 7.55601 7.42826C8.22204 8.09432 9.05233 8.43698 10 8.43698C10.9477 8.43698 11.778 8.09432 12.444 7.42826C13.5656 6.30665 13.7897 4.62164 13.0031 3.22368C12.7652 2.80074 12.1627 2.20622 11.7221 1.95961C11.0254 1.56959 10.1844 1.41702 9.4283 1.54348ZM3.23742 4.82845C2.46391 5.03107 1.79898 5.61323 1.49479 6.35413C1.34982 6.70708 1.30568 6.94195 1.30614 7.35722C1.30665 7.77671 1.38243 8.10579 1.56646 8.4872C1.88798 9.1537 2.53499 9.6764 3.2681 9.86195C3.60004 9.94595 4.18865 9.94399 4.52055 9.85777C5.09957 9.70732 5.71123 9.27655 6.04282 8.78567C6.57135 8.00329 6.62309 6.96465 6.17624 6.10755C5.97699 5.72536 5.50157 5.24994 5.11937 5.05068C4.54939 4.75354 3.84211 4.67002 3.23742 4.82845ZM15.4488 4.82845C14.7857 5.00215 14.1316 5.51698 13.8238 6.10755C13.4662 6.79342 13.4224 7.59475 13.7038 8.30239C13.9986 9.04376 14.6953 9.65405 15.4795 9.85777C15.8113 9.94399 16.4 9.94595 16.7319 9.86195C17.656 9.62806 18.3919 8.89209 18.6296 7.96387C18.703 7.67714 18.7143 7.09268 18.652 6.80422C18.4468 5.85444 17.6887 5.06739 16.7472 4.82661C16.3563 4.72665 15.8345 4.72736 15.4488 4.82845ZM7.63209 9.2299C7.03793 9.36493 6.64564 9.58399 6.19996 10.0296C5.82904 10.4006 5.62885 10.7194 5.46446 11.2008L5.36204 11.5009L5.35166 14.7886C5.34149 18.0202 5.34262 18.0784 5.4198 18.2038C5.46297 18.274 5.55569 18.3663 5.62587 18.4091C5.75108 18.4855 5.83147 18.4869 10 18.4869C14.1685 18.4869 14.2489 18.4855 14.3741 18.4091C14.4443 18.3663 14.537 18.274 14.5802 18.2038C14.6574 18.0784 14.6585 18.0202 14.6483 14.7886L14.638 11.5009L14.5355 11.2008C14.3712 10.7194 14.171 10.4006 13.8 10.0296C13.4289 9.65851 13.1098 9.4582 12.6288 9.29436L12.3288 9.19217L10.0978 9.18434C8.33264 9.1782 7.81789 9.18771 7.63209 9.2299ZM2.49143 10.7015C1.37178 10.8468 0.444344 11.6474 0.0918982 12.7729C0.000391389 13.0652 0 13.0752 0 15.1017V17.1369L0.0907241 17.3616C0.274442 17.8165 0.651937 18.1938 1.10607 18.3766C1.3247 18.4645 1.37018 18.4673 2.80611 18.4793L4.28149 18.4915L4.23593 18.3622C4.17468 18.1882 4.14661 12.2108 4.20454 11.677C4.22673 11.4725 4.27382 11.1995 4.30916 11.0704C4.3445 10.9412 4.38215 10.7959 4.39284 10.7475L4.41225 10.6594L3.57601 10.6644C3.11605 10.6671 2.62798 10.6838 2.49143 10.7015ZM15.6072 10.7475C15.6178 10.7959 15.6555 10.9412 15.6908 11.0704C15.7262 11.1995 15.7733 11.4725 15.7955 11.677C15.8534 12.2108 15.8253 18.1882 15.7641 18.3622L15.7185 18.4915L17.1939 18.4793C18.6298 18.4673 18.6753 18.4645 18.8939 18.3766C19.3481 18.1938 19.7256 17.8165 19.9093 17.3616L20 17.1369V15.1017C20 13.0707 19.9998 13.0658 19.9075 12.7729C19.6108 11.8319 18.9494 11.1371 18.0631 10.8357C17.6663 10.7007 17.2685 10.6594 16.3663 10.6594H15.5877L15.6072 10.7475Z" fill="#AFB6C6"/>
</svg>
